<?xml version="1.0" standalone="no"?>
<!DOCTYPE svg PUBLIC "-//W3C//DTD SVG 20010904//EN"
 "http://www.w3.org/TR/2001/REC-SVG-20010904/DTD/svg10.dtd">
<svg version="1.0" xmlns="http://www.w3.org/2000/svg"
 width="96.000000pt" height="96.000000pt" viewBox="0 0 96.000000 96.000000"
 preserveAspectRatio="xMidYMid meet">

<g transform="translate(0.000000,96.000000) scale(0.100000,-0.100000)"
fill="#d73737" stroke="none">
<path d="M140 872 l0 -68 78 -36 c42 -20 105 -48 140 -64 66 -29 82 -57 40
-69 -13 -3 -48 -17 -78 -29 -30 -13 -74 -32 -98 -42 -85 -35 -82 -26 -82 -253
l0 -202 23 6 c12 3 43 16 70 27 l47 21 0 149 c0 124 2 148 15 148 8 0 43 13
77 29 92 42 180 79 206 86 20 6 22 12 22 79 l0 72 -82 38 c-46 21 -147 69
-226 107 -78 38 -144 69 -147 69 -3 0 -5 -31 -5 -68z"/>
<path d="M753 812 l-53 -26 0 -141 0 -141 -70 -32 c-124 -56 -204 -91 -227
-97 -21 -6 -23 -12 -23 -84 l0 -79 33 -11 c17 -7 114 -52 215 -102 100 -49
184 -89 187 -89 3 0 5 30 5 68 l0 67 -115 58 c-63 31 -120 57 -126 57 -10 0
-39 24 -39 33 0 3 15 10 33 17 17 6 57 22 87 35 30 13 70 29 87 35 74 28 73
24 73 254 0 113 -3 206 -7 205 -5 0 -32 -12 -60 -27z"/>
</g>
</svg>
